<mxfile host="Electron" agent="Mozilla/5.0 (Macintosh; Intel Mac OS X 10_15_7) AppleWebKit/537.36 (KHTML, like Gecko) draw.io/28.0.6 Chrome/138.0.7204.100 Electron/37.2.3 Safari/537.36" version="28.0.6">
  <diagram name="Page-1" id="09uNb1XuMqDQB97wegJH">
    <mxGraphModel dx="1426" dy="774" grid="1" gridSize="10" guides="1" tooltips="1" connect="1" arrows="1" fold="1" page="1" pageScale="1" pageWidth="1169" pageHeight="827" math="0" shadow="0" adaptiveColors="auto">
      <root>
        <mxCell id="0" />
        <mxCell id="1" parent="0" />
        <mxCell id="tKOrkDKv2uSFvN2RYExD-7" style="edgeStyle=orthogonalEdgeStyle;rounded=1;orthogonalLoop=1;jettySize=auto;html=1;" edge="1" parent="1" source="tKOrkDKv2uSFvN2RYExD-1" target="tKOrkDKv2uSFvN2RYExD-2">
          <mxGeometry relative="1" as="geometry" />
        </mxCell>
        <mxCell id="tKOrkDKv2uSFvN2RYExD-1" value="A" style="text;html=1;align=center;verticalAlign=middle;resizable=0;points=[];autosize=1;strokeColor=none;fillColor=none;flipH=1;flipV=1;rounded=1;" vertex="1" parent="1">
          <mxGeometry x="273" y="172" width="30" height="30" as="geometry" />
        </mxCell>
        <mxCell id="tKOrkDKv2uSFvN2RYExD-8" style="edgeStyle=orthogonalEdgeStyle;rounded=1;orthogonalLoop=1;jettySize=auto;html=1;" edge="1" parent="1" source="tKOrkDKv2uSFvN2RYExD-2" target="tKOrkDKv2uSFvN2RYExD-3">
          <mxGeometry relative="1" as="geometry" />
        </mxCell>
        <mxCell id="tKOrkDKv2uSFvN2RYExD-2" value="B" style="text;html=1;align=center;verticalAlign=middle;resizable=0;points=[];autosize=1;strokeColor=none;fillColor=none;flipH=1;flipV=1;rounded=1;" vertex="1" parent="1">
          <mxGeometry x="344" y="172" width="30" height="30" as="geometry" />
        </mxCell>
        <mxCell id="tKOrkDKv2uSFvN2RYExD-9" style="edgeStyle=orthogonalEdgeStyle;rounded=1;orthogonalLoop=1;jettySize=auto;html=1;" edge="1" parent="1" source="tKOrkDKv2uSFvN2RYExD-3" target="tKOrkDKv2uSFvN2RYExD-4">
          <mxGeometry relative="1" as="geometry" />
        </mxCell>
        <mxCell id="tKOrkDKv2uSFvN2RYExD-3" value="C" style="text;html=1;align=center;verticalAlign=middle;resizable=0;points=[];autosize=1;strokeColor=none;fillColor=none;flipH=1;flipV=1;rounded=1;" vertex="1" parent="1">
          <mxGeometry x="415" y="172" width="30" height="30" as="geometry" />
        </mxCell>
        <mxCell id="tKOrkDKv2uSFvN2RYExD-10" style="edgeStyle=orthogonalEdgeStyle;rounded=1;orthogonalLoop=1;jettySize=auto;html=1;" edge="1" parent="1" source="tKOrkDKv2uSFvN2RYExD-4" target="tKOrkDKv2uSFvN2RYExD-5">
          <mxGeometry relative="1" as="geometry" />
        </mxCell>
        <mxCell id="tKOrkDKv2uSFvN2RYExD-4" value="D" style="text;html=1;align=center;verticalAlign=middle;resizable=0;points=[];autosize=1;strokeColor=none;fillColor=none;flipH=1;flipV=1;rounded=1;" vertex="1" parent="1">
          <mxGeometry x="486" y="172" width="30" height="30" as="geometry" />
        </mxCell>
        <mxCell id="tKOrkDKv2uSFvN2RYExD-11" style="edgeStyle=orthogonalEdgeStyle;rounded=1;orthogonalLoop=1;jettySize=auto;html=1;" edge="1" parent="1" source="tKOrkDKv2uSFvN2RYExD-5" target="tKOrkDKv2uSFvN2RYExD-6">
          <mxGeometry relative="1" as="geometry" />
        </mxCell>
        <mxCell id="tKOrkDKv2uSFvN2RYExD-5" value="E" style="text;html=1;align=center;verticalAlign=middle;resizable=0;points=[];autosize=1;strokeColor=none;fillColor=none;flipH=1;flipV=1;rounded=1;" vertex="1" parent="1">
          <mxGeometry x="557" y="172" width="30" height="30" as="geometry" />
        </mxCell>
        <mxCell id="tKOrkDKv2uSFvN2RYExD-60" style="edgeStyle=orthogonalEdgeStyle;rounded=1;orthogonalLoop=1;jettySize=auto;html=1;" edge="1" parent="1" source="tKOrkDKv2uSFvN2RYExD-6" target="tKOrkDKv2uSFvN2RYExD-59">
          <mxGeometry relative="1" as="geometry" />
        </mxCell>
        <mxCell id="tKOrkDKv2uSFvN2RYExD-6" value="F" style="text;html=1;align=center;verticalAlign=middle;resizable=0;points=[];autosize=1;strokeColor=none;fillColor=none;flipH=1;flipV=1;rounded=1;" vertex="1" parent="1">
          <mxGeometry x="628" y="172" width="30" height="30" as="geometry" />
        </mxCell>
        <mxCell id="tKOrkDKv2uSFvN2RYExD-13" style="edgeStyle=orthogonalEdgeStyle;rounded=1;orthogonalLoop=1;jettySize=auto;html=1;fillColor=#60a917;strokeColor=#2D7600;" edge="1" parent="1" source="tKOrkDKv2uSFvN2RYExD-14" target="tKOrkDKv2uSFvN2RYExD-16">
          <mxGeometry relative="1" as="geometry" />
        </mxCell>
        <mxCell id="tKOrkDKv2uSFvN2RYExD-14" value="B" style="text;html=1;align=center;verticalAlign=middle;resizable=0;points=[];autosize=1;strokeColor=#2D7600;fillColor=#60a917;flipH=1;flipV=1;rounded=1;fontColor=#ffffff;" vertex="1" parent="1">
          <mxGeometry x="273" y="562" width="30" height="30" as="geometry" />
        </mxCell>
        <mxCell id="tKOrkDKv2uSFvN2RYExD-15" style="edgeStyle=orthogonalEdgeStyle;rounded=1;orthogonalLoop=1;jettySize=auto;html=1;fillColor=#60a917;strokeColor=#2D7600;" edge="1" parent="1" source="tKOrkDKv2uSFvN2RYExD-16" target="tKOrkDKv2uSFvN2RYExD-18">
          <mxGeometry relative="1" as="geometry" />
        </mxCell>
        <mxCell id="tKOrkDKv2uSFvN2RYExD-16" value="A" style="text;html=1;align=center;verticalAlign=middle;resizable=0;points=[];autosize=1;strokeColor=#2D7600;fillColor=#60a917;flipH=1;flipV=1;rounded=1;fontColor=#ffffff;" vertex="1" parent="1">
          <mxGeometry x="344" y="562" width="30" height="30" as="geometry" />
        </mxCell>
        <mxCell id="tKOrkDKv2uSFvN2RYExD-17" style="edgeStyle=orthogonalEdgeStyle;rounded=1;orthogonalLoop=1;jettySize=auto;html=1;" edge="1" parent="1" source="tKOrkDKv2uSFvN2RYExD-18" target="tKOrkDKv2uSFvN2RYExD-20">
          <mxGeometry relative="1" as="geometry" />
        </mxCell>
        <mxCell id="tKOrkDKv2uSFvN2RYExD-18" value="D" style="text;html=1;align=center;verticalAlign=middle;resizable=0;points=[];autosize=1;strokeColor=none;fillColor=none;flipH=1;flipV=1;rounded=1;" vertex="1" parent="1">
          <mxGeometry x="415" y="562" width="30" height="30" as="geometry" />
        </mxCell>
        <mxCell id="tKOrkDKv2uSFvN2RYExD-19" style="edgeStyle=orthogonalEdgeStyle;rounded=1;orthogonalLoop=1;jettySize=auto;html=1;" edge="1" parent="1" source="tKOrkDKv2uSFvN2RYExD-20" target="tKOrkDKv2uSFvN2RYExD-22">
          <mxGeometry relative="1" as="geometry" />
        </mxCell>
        <mxCell id="tKOrkDKv2uSFvN2RYExD-20" value="C" style="text;html=1;align=center;verticalAlign=middle;resizable=0;points=[];autosize=1;strokeColor=none;fillColor=none;flipH=1;flipV=1;rounded=1;" vertex="1" parent="1">
          <mxGeometry x="486" y="562" width="30" height="30" as="geometry" />
        </mxCell>
        <mxCell id="tKOrkDKv2uSFvN2RYExD-21" style="edgeStyle=orthogonalEdgeStyle;rounded=1;orthogonalLoop=1;jettySize=auto;html=1;" edge="1" parent="1" source="tKOrkDKv2uSFvN2RYExD-22" target="tKOrkDKv2uSFvN2RYExD-23">
          <mxGeometry relative="1" as="geometry" />
        </mxCell>
        <mxCell id="tKOrkDKv2uSFvN2RYExD-22" value="F" style="text;html=1;align=center;verticalAlign=middle;resizable=0;points=[];autosize=1;strokeColor=none;fillColor=none;flipH=1;flipV=1;rounded=1;" vertex="1" parent="1">
          <mxGeometry x="557" y="562" width="30" height="30" as="geometry" />
        </mxCell>
        <mxCell id="tKOrkDKv2uSFvN2RYExD-77" style="edgeStyle=orthogonalEdgeStyle;curved=1;rounded=1;orthogonalLoop=1;jettySize=auto;html=1;" edge="1" parent="1" source="tKOrkDKv2uSFvN2RYExD-23" target="tKOrkDKv2uSFvN2RYExD-73">
          <mxGeometry relative="1" as="geometry" />
        </mxCell>
        <mxCell id="tKOrkDKv2uSFvN2RYExD-23" value="E" style="text;html=1;align=center;verticalAlign=middle;resizable=0;points=[];autosize=1;strokeColor=none;fillColor=none;flipH=1;flipV=1;rounded=1;" vertex="1" parent="1">
          <mxGeometry x="628" y="562" width="30" height="30" as="geometry" />
        </mxCell>
        <mxCell id="tKOrkDKv2uSFvN2RYExD-37" style="edgeStyle=orthogonalEdgeStyle;rounded=1;orthogonalLoop=1;jettySize=auto;html=1;" edge="1" parent="1" source="tKOrkDKv2uSFvN2RYExD-38" target="tKOrkDKv2uSFvN2RYExD-40">
          <mxGeometry relative="1" as="geometry" />
        </mxCell>
        <mxCell id="tKOrkDKv2uSFvN2RYExD-38" value="A" style="text;html=1;align=center;verticalAlign=middle;resizable=0;points=[];autosize=1;strokeColor=none;fillColor=none;flipH=1;flipV=1;rounded=1;" vertex="1" parent="1">
          <mxGeometry x="415" y="442" width="30" height="30" as="geometry" />
        </mxCell>
        <mxCell id="tKOrkDKv2uSFvN2RYExD-39" style="edgeStyle=orthogonalEdgeStyle;rounded=1;orthogonalLoop=1;jettySize=auto;html=1;" edge="1" parent="1" source="tKOrkDKv2uSFvN2RYExD-40" target="tKOrkDKv2uSFvN2RYExD-42">
          <mxGeometry relative="1" as="geometry" />
        </mxCell>
        <mxCell id="tKOrkDKv2uSFvN2RYExD-40" value="B" style="text;html=1;align=center;verticalAlign=middle;resizable=0;points=[];autosize=1;strokeColor=none;fillColor=none;flipH=1;flipV=1;rounded=1;" vertex="1" parent="1">
          <mxGeometry x="486" y="442" width="30" height="30" as="geometry" />
        </mxCell>
        <mxCell id="tKOrkDKv2uSFvN2RYExD-41" style="edgeStyle=orthogonalEdgeStyle;rounded=1;orthogonalLoop=1;jettySize=auto;html=1;" edge="1" parent="1" source="tKOrkDKv2uSFvN2RYExD-42" target="tKOrkDKv2uSFvN2RYExD-44">
          <mxGeometry relative="1" as="geometry" />
        </mxCell>
        <mxCell id="tKOrkDKv2uSFvN2RYExD-42" value="C" style="text;html=1;align=center;verticalAlign=middle;resizable=0;points=[];autosize=1;strokeColor=none;fillColor=none;flipH=1;flipV=1;rounded=1;" vertex="1" parent="1">
          <mxGeometry x="557" y="442" width="30" height="30" as="geometry" />
        </mxCell>
        <mxCell id="tKOrkDKv2uSFvN2RYExD-43" style="edgeStyle=orthogonalEdgeStyle;rounded=1;orthogonalLoop=1;jettySize=auto;html=1;" edge="1" parent="1" source="tKOrkDKv2uSFvN2RYExD-44" target="tKOrkDKv2uSFvN2RYExD-46">
          <mxGeometry relative="1" as="geometry" />
        </mxCell>
        <mxCell id="tKOrkDKv2uSFvN2RYExD-44" value="D" style="text;html=1;align=center;verticalAlign=middle;resizable=0;points=[];autosize=1;strokeColor=none;fillColor=none;flipH=1;flipV=1;rounded=1;" vertex="1" parent="1">
          <mxGeometry x="628" y="442" width="30" height="30" as="geometry" />
        </mxCell>
        <mxCell id="tKOrkDKv2uSFvN2RYExD-45" style="edgeStyle=orthogonalEdgeStyle;rounded=1;orthogonalLoop=1;jettySize=auto;html=1;fillColor=#60a917;strokeColor=#2D7600;" edge="1" parent="1" source="tKOrkDKv2uSFvN2RYExD-46" target="tKOrkDKv2uSFvN2RYExD-47">
          <mxGeometry relative="1" as="geometry" />
        </mxCell>
        <mxCell id="tKOrkDKv2uSFvN2RYExD-46" value="F" style="text;html=1;align=center;verticalAlign=middle;resizable=0;points=[];autosize=1;strokeColor=#2D7600;fillColor=#60a917;flipH=1;flipV=1;rounded=1;fontColor=#ffffff;" vertex="1" parent="1">
          <mxGeometry x="699" y="442" width="30" height="30" as="geometry" />
        </mxCell>
        <mxCell id="tKOrkDKv2uSFvN2RYExD-75" style="edgeStyle=orthogonalEdgeStyle;curved=1;rounded=1;orthogonalLoop=1;jettySize=auto;html=1;fillColor=#60a917;strokeColor=#2D7600;" edge="1" parent="1" source="tKOrkDKv2uSFvN2RYExD-47" target="tKOrkDKv2uSFvN2RYExD-71">
          <mxGeometry relative="1" as="geometry" />
        </mxCell>
        <mxCell id="tKOrkDKv2uSFvN2RYExD-47" value="E" style="text;html=1;align=center;verticalAlign=middle;resizable=0;points=[];autosize=1;strokeColor=#2D7600;fillColor=#60a917;flipH=1;flipV=1;rounded=1;fontColor=#ffffff;" vertex="1" parent="1">
          <mxGeometry x="770" y="442" width="30" height="30" as="geometry" />
        </mxCell>
        <mxCell id="tKOrkDKv2uSFvN2RYExD-48" style="edgeStyle=orthogonalEdgeStyle;rounded=1;orthogonalLoop=1;jettySize=auto;html=1;" edge="1" parent="1" source="tKOrkDKv2uSFvN2RYExD-49" target="tKOrkDKv2uSFvN2RYExD-51">
          <mxGeometry relative="1" as="geometry" />
        </mxCell>
        <mxCell id="tKOrkDKv2uSFvN2RYExD-49" value="A" style="text;html=1;align=center;verticalAlign=middle;resizable=0;points=[];autosize=1;strokeColor=none;fillColor=none;flipH=1;flipV=1;rounded=1;" vertex="1" parent="1">
          <mxGeometry x="344" y="502" width="30" height="30" as="geometry" />
        </mxCell>
        <mxCell id="tKOrkDKv2uSFvN2RYExD-50" style="edgeStyle=orthogonalEdgeStyle;rounded=1;orthogonalLoop=1;jettySize=auto;html=1;" edge="1" parent="1" source="tKOrkDKv2uSFvN2RYExD-51" target="tKOrkDKv2uSFvN2RYExD-53">
          <mxGeometry relative="1" as="geometry" />
        </mxCell>
        <mxCell id="tKOrkDKv2uSFvN2RYExD-51" value="B" style="text;html=1;align=center;verticalAlign=middle;resizable=0;points=[];autosize=1;strokeColor=none;fillColor=none;flipH=1;flipV=1;rounded=1;" vertex="1" parent="1">
          <mxGeometry x="415" y="502" width="30" height="30" as="geometry" />
        </mxCell>
        <mxCell id="tKOrkDKv2uSFvN2RYExD-52" style="edgeStyle=orthogonalEdgeStyle;rounded=1;orthogonalLoop=1;jettySize=auto;html=1;fillColor=#60a917;strokeColor=#2D7600;" edge="1" parent="1" source="tKOrkDKv2uSFvN2RYExD-53" target="tKOrkDKv2uSFvN2RYExD-55">
          <mxGeometry relative="1" as="geometry" />
        </mxCell>
        <mxCell id="tKOrkDKv2uSFvN2RYExD-53" value="D" style="text;html=1;align=center;verticalAlign=middle;resizable=0;points=[];autosize=1;strokeColor=#2D7600;fillColor=#60a917;flipH=1;flipV=1;rounded=1;fontColor=#ffffff;" vertex="1" parent="1">
          <mxGeometry x="486" y="502" width="30" height="30" as="geometry" />
        </mxCell>
        <mxCell id="tKOrkDKv2uSFvN2RYExD-54" style="edgeStyle=orthogonalEdgeStyle;rounded=1;orthogonalLoop=1;jettySize=auto;html=1;fillColor=#60a917;strokeColor=#2D7600;" edge="1" parent="1" source="tKOrkDKv2uSFvN2RYExD-55" target="tKOrkDKv2uSFvN2RYExD-57">
          <mxGeometry relative="1" as="geometry" />
        </mxCell>
        <mxCell id="tKOrkDKv2uSFvN2RYExD-55" value="C" style="text;html=1;align=center;verticalAlign=middle;resizable=0;points=[];autosize=1;strokeColor=#2D7600;fillColor=#60a917;flipH=1;flipV=1;rounded=1;fontColor=#ffffff;" vertex="1" parent="1">
          <mxGeometry x="557" y="502" width="30" height="30" as="geometry" />
        </mxCell>
        <mxCell id="tKOrkDKv2uSFvN2RYExD-56" style="edgeStyle=orthogonalEdgeStyle;rounded=1;orthogonalLoop=1;jettySize=auto;html=1;" edge="1" parent="1" source="tKOrkDKv2uSFvN2RYExD-57" target="tKOrkDKv2uSFvN2RYExD-58">
          <mxGeometry relative="1" as="geometry" />
        </mxCell>
        <mxCell id="tKOrkDKv2uSFvN2RYExD-57" value="F" style="text;html=1;align=center;verticalAlign=middle;resizable=0;points=[];autosize=1;strokeColor=none;fillColor=none;flipH=1;flipV=1;rounded=1;" vertex="1" parent="1">
          <mxGeometry x="628" y="502" width="30" height="30" as="geometry" />
        </mxCell>
        <mxCell id="tKOrkDKv2uSFvN2RYExD-76" style="edgeStyle=orthogonalEdgeStyle;curved=1;rounded=1;orthogonalLoop=1;jettySize=auto;html=1;" edge="1" parent="1" source="tKOrkDKv2uSFvN2RYExD-58" target="tKOrkDKv2uSFvN2RYExD-72">
          <mxGeometry relative="1" as="geometry" />
        </mxCell>
        <mxCell id="tKOrkDKv2uSFvN2RYExD-58" value="E" style="text;html=1;align=center;verticalAlign=middle;resizable=0;points=[];autosize=1;strokeColor=none;fillColor=none;flipH=1;flipV=1;rounded=1;" vertex="1" parent="1">
          <mxGeometry x="699" y="502" width="30" height="30" as="geometry" />
        </mxCell>
        <mxCell id="tKOrkDKv2uSFvN2RYExD-59" value="nil" style="text;html=1;align=center;verticalAlign=middle;resizable=0;points=[];autosize=1;strokeColor=none;fillColor=none;rounded=1;" vertex="1" parent="1">
          <mxGeometry x="703" y="172" width="40" height="30" as="geometry" />
        </mxCell>
        <mxCell id="tKOrkDKv2uSFvN2RYExD-61" style="edgeStyle=orthogonalEdgeStyle;rounded=1;orthogonalLoop=1;jettySize=auto;html=1;entryX=0.533;entryY=0;entryDx=0;entryDy=0;entryPerimeter=0;curved=1;" edge="1" parent="1" source="tKOrkDKv2uSFvN2RYExD-1" target="tKOrkDKv2uSFvN2RYExD-3">
          <mxGeometry relative="1" as="geometry">
            <Array as="points">
              <mxPoint x="303" y="222" />
              <mxPoint x="429" y="222" />
            </Array>
          </mxGeometry>
        </mxCell>
        <mxCell id="tKOrkDKv2uSFvN2RYExD-65" value="swapPairs(C)" style="edgeLabel;html=1;align=center;verticalAlign=middle;resizable=0;points=[];rounded=1;" vertex="1" connectable="0" parent="tKOrkDKv2uSFvN2RYExD-61">
          <mxGeometry x="-0.0602" y="-1" relative="1" as="geometry">
            <mxPoint as="offset" />
          </mxGeometry>
        </mxCell>
        <mxCell id="tKOrkDKv2uSFvN2RYExD-71" value="nil" style="text;html=1;align=center;verticalAlign=middle;resizable=0;points=[];autosize=1;strokeColor=#2D7600;fillColor=#60a917;rounded=1;fontColor=#ffffff;" vertex="1" parent="1">
          <mxGeometry x="845" y="442" width="40" height="30" as="geometry" />
        </mxCell>
        <mxCell id="tKOrkDKv2uSFvN2RYExD-72" value="nil" style="text;html=1;align=center;verticalAlign=middle;resizable=0;points=[];autosize=1;strokeColor=none;fillColor=none;rounded=1;" vertex="1" parent="1">
          <mxGeometry x="765" y="502" width="40" height="30" as="geometry" />
        </mxCell>
        <mxCell id="tKOrkDKv2uSFvN2RYExD-73" value="nil" style="text;html=1;align=center;verticalAlign=middle;resizable=0;points=[];autosize=1;strokeColor=none;fillColor=none;rounded=1;" vertex="1" parent="1">
          <mxGeometry x="694" y="562" width="40" height="30" as="geometry" />
        </mxCell>
        <mxCell id="tKOrkDKv2uSFvN2RYExD-78" style="edgeStyle=orthogonalEdgeStyle;rounded=1;orthogonalLoop=1;jettySize=auto;html=1;" edge="1" parent="1" source="tKOrkDKv2uSFvN2RYExD-79" target="tKOrkDKv2uSFvN2RYExD-81">
          <mxGeometry relative="1" as="geometry" />
        </mxCell>
        <mxCell id="tKOrkDKv2uSFvN2RYExD-79" value="A" style="text;html=1;align=center;verticalAlign=middle;resizable=0;points=[];autosize=1;strokeColor=none;fillColor=none;flipH=1;flipV=1;rounded=1;" vertex="1" parent="1">
          <mxGeometry x="344" y="262" width="30" height="30" as="geometry" />
        </mxCell>
        <mxCell id="tKOrkDKv2uSFvN2RYExD-80" style="edgeStyle=orthogonalEdgeStyle;rounded=1;orthogonalLoop=1;jettySize=auto;html=1;" edge="1" parent="1" source="tKOrkDKv2uSFvN2RYExD-81" target="tKOrkDKv2uSFvN2RYExD-83">
          <mxGeometry relative="1" as="geometry" />
        </mxCell>
        <mxCell id="tKOrkDKv2uSFvN2RYExD-81" value="B" style="text;html=1;align=center;verticalAlign=middle;resizable=0;points=[];autosize=1;strokeColor=none;fillColor=none;flipH=1;flipV=1;rounded=1;" vertex="1" parent="1">
          <mxGeometry x="415" y="262" width="30" height="30" as="geometry" />
        </mxCell>
        <mxCell id="tKOrkDKv2uSFvN2RYExD-82" style="edgeStyle=orthogonalEdgeStyle;rounded=1;orthogonalLoop=1;jettySize=auto;html=1;" edge="1" parent="1" source="tKOrkDKv2uSFvN2RYExD-83" target="tKOrkDKv2uSFvN2RYExD-85">
          <mxGeometry relative="1" as="geometry" />
        </mxCell>
        <mxCell id="tKOrkDKv2uSFvN2RYExD-83" value="C" style="text;html=1;align=center;verticalAlign=middle;resizable=0;points=[];autosize=1;strokeColor=none;fillColor=none;flipH=1;flipV=1;rounded=1;" vertex="1" parent="1">
          <mxGeometry x="486" y="262" width="30" height="30" as="geometry" />
        </mxCell>
        <mxCell id="tKOrkDKv2uSFvN2RYExD-84" style="edgeStyle=orthogonalEdgeStyle;rounded=1;orthogonalLoop=1;jettySize=auto;html=1;" edge="1" parent="1" source="tKOrkDKv2uSFvN2RYExD-85" target="tKOrkDKv2uSFvN2RYExD-87">
          <mxGeometry relative="1" as="geometry" />
        </mxCell>
        <mxCell id="tKOrkDKv2uSFvN2RYExD-85" value="D" style="text;html=1;align=center;verticalAlign=middle;resizable=0;points=[];autosize=1;strokeColor=none;fillColor=none;flipH=1;flipV=1;rounded=1;" vertex="1" parent="1">
          <mxGeometry x="557" y="262" width="30" height="30" as="geometry" />
        </mxCell>
        <mxCell id="tKOrkDKv2uSFvN2RYExD-86" style="edgeStyle=orthogonalEdgeStyle;rounded=1;orthogonalLoop=1;jettySize=auto;html=1;" edge="1" parent="1" source="tKOrkDKv2uSFvN2RYExD-87" target="tKOrkDKv2uSFvN2RYExD-89">
          <mxGeometry relative="1" as="geometry" />
        </mxCell>
        <mxCell id="tKOrkDKv2uSFvN2RYExD-87" value="E" style="text;html=1;align=center;verticalAlign=middle;resizable=0;points=[];autosize=1;strokeColor=none;fillColor=none;flipH=1;flipV=1;rounded=1;" vertex="1" parent="1">
          <mxGeometry x="628" y="262" width="30" height="30" as="geometry" />
        </mxCell>
        <mxCell id="tKOrkDKv2uSFvN2RYExD-88" style="edgeStyle=orthogonalEdgeStyle;rounded=1;orthogonalLoop=1;jettySize=auto;html=1;" edge="1" parent="1" source="tKOrkDKv2uSFvN2RYExD-89" target="tKOrkDKv2uSFvN2RYExD-90">
          <mxGeometry relative="1" as="geometry" />
        </mxCell>
        <mxCell id="tKOrkDKv2uSFvN2RYExD-89" value="F" style="text;html=1;align=center;verticalAlign=middle;resizable=0;points=[];autosize=1;strokeColor=none;fillColor=none;flipH=1;flipV=1;rounded=1;" vertex="1" parent="1">
          <mxGeometry x="699" y="262" width="30" height="30" as="geometry" />
        </mxCell>
        <mxCell id="tKOrkDKv2uSFvN2RYExD-90" value="nil" style="text;html=1;align=center;verticalAlign=middle;resizable=0;points=[];autosize=1;strokeColor=none;fillColor=none;rounded=1;" vertex="1" parent="1">
          <mxGeometry x="774" y="262" width="40" height="30" as="geometry" />
        </mxCell>
        <mxCell id="tKOrkDKv2uSFvN2RYExD-93" style="edgeStyle=orthogonalEdgeStyle;curved=1;rounded=1;orthogonalLoop=1;jettySize=auto;html=1;entryX=0.467;entryY=0.033;entryDx=0;entryDy=0;entryPerimeter=0;" edge="1" parent="1" source="tKOrkDKv2uSFvN2RYExD-83" target="tKOrkDKv2uSFvN2RYExD-87">
          <mxGeometry relative="1" as="geometry">
            <Array as="points">
              <mxPoint x="504" y="312" />
              <mxPoint x="644" y="312" />
            </Array>
          </mxGeometry>
        </mxCell>
        <mxCell id="tKOrkDKv2uSFvN2RYExD-94" value="swapPairs(E)" style="edgeLabel;html=1;align=center;verticalAlign=middle;resizable=0;points=[];rounded=1;" vertex="1" connectable="0" parent="tKOrkDKv2uSFvN2RYExD-93">
          <mxGeometry x="0.0498" y="-1" relative="1" as="geometry">
            <mxPoint as="offset" />
          </mxGeometry>
        </mxCell>
        <mxCell id="tKOrkDKv2uSFvN2RYExD-97" style="edgeStyle=orthogonalEdgeStyle;rounded=1;orthogonalLoop=1;jettySize=auto;html=1;" edge="1" parent="1" source="tKOrkDKv2uSFvN2RYExD-98" target="tKOrkDKv2uSFvN2RYExD-100">
          <mxGeometry relative="1" as="geometry" />
        </mxCell>
        <mxCell id="tKOrkDKv2uSFvN2RYExD-98" value="A" style="text;html=1;align=center;verticalAlign=middle;resizable=0;points=[];autosize=1;strokeColor=none;fillColor=none;flipH=1;flipV=1;rounded=1;" vertex="1" parent="1">
          <mxGeometry x="415" y="352" width="30" height="30" as="geometry" />
        </mxCell>
        <mxCell id="tKOrkDKv2uSFvN2RYExD-99" style="edgeStyle=orthogonalEdgeStyle;rounded=1;orthogonalLoop=1;jettySize=auto;html=1;" edge="1" parent="1" source="tKOrkDKv2uSFvN2RYExD-100" target="tKOrkDKv2uSFvN2RYExD-102">
          <mxGeometry relative="1" as="geometry" />
        </mxCell>
        <mxCell id="tKOrkDKv2uSFvN2RYExD-100" value="B" style="text;html=1;align=center;verticalAlign=middle;resizable=0;points=[];autosize=1;strokeColor=none;fillColor=none;flipH=1;flipV=1;rounded=1;" vertex="1" parent="1">
          <mxGeometry x="486" y="352" width="30" height="30" as="geometry" />
        </mxCell>
        <mxCell id="tKOrkDKv2uSFvN2RYExD-101" style="edgeStyle=orthogonalEdgeStyle;rounded=1;orthogonalLoop=1;jettySize=auto;html=1;" edge="1" parent="1" source="tKOrkDKv2uSFvN2RYExD-102" target="tKOrkDKv2uSFvN2RYExD-104">
          <mxGeometry relative="1" as="geometry" />
        </mxCell>
        <mxCell id="tKOrkDKv2uSFvN2RYExD-102" value="C" style="text;html=1;align=center;verticalAlign=middle;resizable=0;points=[];autosize=1;strokeColor=none;fillColor=none;flipH=1;flipV=1;rounded=1;" vertex="1" parent="1">
          <mxGeometry x="557" y="352" width="30" height="30" as="geometry" />
        </mxCell>
        <mxCell id="tKOrkDKv2uSFvN2RYExD-103" style="edgeStyle=orthogonalEdgeStyle;rounded=1;orthogonalLoop=1;jettySize=auto;html=1;" edge="1" parent="1" source="tKOrkDKv2uSFvN2RYExD-104" target="tKOrkDKv2uSFvN2RYExD-106">
          <mxGeometry relative="1" as="geometry" />
        </mxCell>
        <mxCell id="tKOrkDKv2uSFvN2RYExD-104" value="D" style="text;html=1;align=center;verticalAlign=middle;resizable=0;points=[];autosize=1;strokeColor=none;fillColor=none;flipH=1;flipV=1;rounded=1;" vertex="1" parent="1">
          <mxGeometry x="628" y="352" width="30" height="30" as="geometry" />
        </mxCell>
        <mxCell id="tKOrkDKv2uSFvN2RYExD-105" style="edgeStyle=orthogonalEdgeStyle;rounded=1;orthogonalLoop=1;jettySize=auto;html=1;" edge="1" parent="1" source="tKOrkDKv2uSFvN2RYExD-106" target="tKOrkDKv2uSFvN2RYExD-108">
          <mxGeometry relative="1" as="geometry" />
        </mxCell>
        <mxCell id="tKOrkDKv2uSFvN2RYExD-106" value="E" style="text;html=1;align=center;verticalAlign=middle;resizable=0;points=[];autosize=1;strokeColor=none;fillColor=none;flipH=1;flipV=1;rounded=1;" vertex="1" parent="1">
          <mxGeometry x="699" y="352" width="30" height="30" as="geometry" />
        </mxCell>
        <mxCell id="tKOrkDKv2uSFvN2RYExD-107" style="edgeStyle=orthogonalEdgeStyle;rounded=1;orthogonalLoop=1;jettySize=auto;html=1;" edge="1" parent="1" source="tKOrkDKv2uSFvN2RYExD-108" target="tKOrkDKv2uSFvN2RYExD-109">
          <mxGeometry relative="1" as="geometry" />
        </mxCell>
        <mxCell id="tKOrkDKv2uSFvN2RYExD-108" value="F" style="text;html=1;align=center;verticalAlign=middle;resizable=0;points=[];autosize=1;strokeColor=none;fillColor=none;flipH=1;flipV=1;rounded=1;" vertex="1" parent="1">
          <mxGeometry x="770" y="352" width="30" height="30" as="geometry" />
        </mxCell>
        <mxCell id="tKOrkDKv2uSFvN2RYExD-109" value="nil" style="text;html=1;align=center;verticalAlign=middle;resizable=0;points=[];autosize=1;strokeColor=none;fillColor=none;rounded=1;" vertex="1" parent="1">
          <mxGeometry x="845" y="352" width="40" height="30" as="geometry" />
        </mxCell>
        <mxCell id="tKOrkDKv2uSFvN2RYExD-114" style="edgeStyle=orthogonalEdgeStyle;curved=1;rounded=1;orthogonalLoop=1;jettySize=auto;html=1;entryX=0.475;entryY=0.967;entryDx=0;entryDy=0;entryPerimeter=0;" edge="1" parent="1" source="tKOrkDKv2uSFvN2RYExD-106" target="tKOrkDKv2uSFvN2RYExD-109">
          <mxGeometry relative="1" as="geometry">
            <Array as="points">
              <mxPoint x="715" y="402" />
              <mxPoint x="864" y="402" />
            </Array>
          </mxGeometry>
        </mxCell>
        <mxCell id="tKOrkDKv2uSFvN2RYExD-115" value="swapPairs(nil)&lt;div&gt;触底反弹&lt;/div&gt;" style="edgeLabel;html=1;align=center;verticalAlign=middle;resizable=0;points=[];rounded=1;" vertex="1" connectable="0" parent="tKOrkDKv2uSFvN2RYExD-114">
          <mxGeometry x="0.0211" y="1" relative="1" as="geometry">
            <mxPoint as="offset" />
          </mxGeometry>
        </mxCell>
        <mxCell id="tKOrkDKv2uSFvN2RYExD-116" value="递归解法执行过程图" style="text;html=1;align=center;verticalAlign=middle;resizable=0;points=[];autosize=1;strokeColor=none;fillColor=none;fontSize=18;fontStyle=1" vertex="1" parent="1">
          <mxGeometry x="484" y="95" width="190" height="40" as="geometry" />
        </mxCell>
        <mxCell id="tKOrkDKv2uSFvN2RYExD-117" value="swapPairs(right.Next) 返回的是已经交换好链表的头结点，因此，递归解法是从后向前，不断将已经交换好的、更短的链表接到未交换的链表后" style="text;html=1;align=center;verticalAlign=middle;resizable=0;points=[];autosize=1;strokeColor=none;fillColor=none;" vertex="1" parent="1">
          <mxGeometry x="195" y="642" width="780" height="30" as="geometry" />
        </mxCell>
        <mxCell id="tKOrkDKv2uSFvN2RYExD-118" value="如果以下地下室模型来理解，这个执行过程就是先空手一直往下走，走到最后一层后，返回时在每个房间穿珠子，然后再抓住线头返回地面。这就是“下楼时递推，上楼时构建”模型" style="text;html=1;align=center;verticalAlign=middle;resizable=0;points=[];autosize=1;strokeColor=none;fillColor=none;" vertex="1" parent="1">
          <mxGeometry x="87" y="700" width="970" height="30" as="geometry" />
        </mxCell>
      </root>
    </mxGraphModel>
  </diagram>
</mxfile>
